<?xml version="1.0" encoding="UTF-8"?>
<svg width="700pt" height="700pt" version="1.1" viewBox="0 0 700 700" xmlns="http://www.w3.org/2000/svg" xmlns:xlink="http://www.w3.org/1999/xlink">
 <!-- <defs>
  <symbol id="l" overflow="visible">
   <path d="m29.312-1.75c-1.5117 0.78125-3.0898 1.3711-4.7344 1.7656-1.6367 0.40625-3.3398 0.60938-5.1094 0.60938-5.3125 0-9.5273-1.4844-12.641-4.4531-3.1055-2.9688-4.6562-7-4.6562-12.094s1.5508-9.125 4.6562-12.094c3.1133-2.9688 7.3281-4.4531 12.641-4.4531 1.7695 0 3.4727 0.19922 5.1094 0.59375 1.6445 0.39844 3.2227 0.99219 4.7344 1.7812v6.5938c-1.5312-1.0391-3.0391-1.8008-4.5156-2.2812-1.4805-0.48828-3.0391-0.73438-4.6719-0.73438-2.9375 0-5.2461 0.94531-6.9219 2.8281-1.6797 1.875-2.5156 4.4648-2.5156 7.7656 0 3.293 0.83594 5.8828 2.5156 7.7656 1.6758 1.875 3.9844 2.8125 6.9219 2.8125 1.6328 0 3.1914-0.23828 4.6719-0.71875 1.4766-0.48828 2.9844-1.2539 4.5156-2.2969z"/>
  </symbol>
  <symbol id="d" overflow="visible">
   <path d="m21.453-17.406c-0.67969-0.3125-1.3516-0.53906-2.0156-0.6875-0.65625-0.15625-1.3203-0.23438-1.9844-0.23438-1.9688 0-3.4844 0.63281-4.5469 1.8906-1.0547 1.2617-1.5781 3.0703-1.5781 5.4219v11.016h-7.6562v-23.922h7.6562v3.9219c0.97656-1.5625 2.1016-2.7031 3.375-3.4219 1.2812-0.71875 2.8125-1.0781 4.5938-1.0781 0.25 0 0.52344 0.011719 0.82812 0.03125 0.30078 0.023438 0.73438 0.070312 1.2969 0.14062z"/>
  </symbol>
  <symbol id="c" overflow="visible">
   <path d="m27.562-12.031v2.1875h-17.891c0.1875 1.793 0.83203 3.1367 1.9375 4.0312 1.1133 0.89844 2.6719 1.3438 4.6719 1.3438 1.6016 0 3.25-0.23438 4.9375-0.70312 1.6875-0.47656 3.4219-1.2031 5.2031-2.1719v5.8906c-1.8047 0.6875-3.6094 1.2031-5.4219 1.5469-1.8125 0.35156-3.6211 0.53125-5.4219 0.53125-4.3359 0-7.7031-1.0977-10.109-3.2969-2.3984-2.207-3.5938-5.2969-3.5938-9.2656 0-3.9062 1.1758-6.9727 3.5312-9.2031 2.3633-2.2383 5.6094-3.3594 9.7344-3.3594 3.7578 0 6.7695 1.1367 9.0312 3.4062 2.2578 2.2617 3.3906 5.2812 3.3906 9.0625zm-7.8594-2.5312c0-1.457-0.42969-2.6289-1.2812-3.5156-0.84375-0.89453-1.9492-1.3438-3.3125-1.3438-1.4922 0-2.6992 0.41797-3.625 1.25-0.91797 0.83594-1.4922 2.0391-1.7188 3.6094z"/>
  </symbol>
  <symbol id="a" overflow="visible">
   <path d="m14.391-10.766c-1.5938 0-2.793 0.27344-3.5938 0.8125-0.80469 0.54297-1.2031 1.3398-1.2031 2.3906 0 0.96875 0.32031 1.7305 0.96875 2.2812 0.64453 0.54297 1.5469 0.8125 2.7031 0.8125 1.4375 0 2.6445-0.51562 3.625-1.5469 0.98828-1.0312 1.4844-2.3203 1.4844-3.875v-0.875zm11.688-2.8906v13.656h-7.7031v-3.5469c-1.0312 1.4492-2.1875 2.5078-3.4688 3.1719s-2.8398 1-4.6719 1c-2.4805 0-4.4961-0.72266-6.0469-2.1719-1.543-1.4453-2.3125-3.3203-2.3125-5.625 0-2.8125 0.96094-4.8672 2.8906-6.1719 1.9375-1.3125 4.9688-1.9688 9.0938-1.9688h4.5156v-0.60938c0-1.207-0.48047-2.0938-1.4375-2.6562-0.94922-0.5625-2.4375-0.84375-4.4688-0.84375-1.6367 0-3.1562 0.16797-4.5625 0.5-1.4062 0.32422-2.7188 0.8125-3.9375 1.4688v-5.8281c1.6445-0.40625 3.2891-0.70703 4.9375-0.90625 1.6562-0.20703 3.3047-0.3125 4.9531-0.3125 4.3203 0 7.4375 0.85547 9.3438 2.5625 1.9141 1.6992 2.875 4.4609 2.875 8.2812z"/>
  </symbol>
  <symbol id="b" overflow="visible">
   <path d="m12.031-30.719v6.7969h7.875v5.4688h-7.875v10.141c0 1.1172 0.21875 1.8711 0.65625 2.2656 0.4375 0.38672 1.3125 0.57812 2.625 0.57812h3.9375v5.4688h-6.5625c-3.0234 0-5.1641-0.62891-6.4219-1.8906-1.2617-1.2578-1.8906-3.3984-1.8906-6.4219v-10.141h-3.7969v-5.4688h3.7969v-6.7969z"/>
  </symbol>
  <symbol id="i" overflow="visible">
   <path d="m19.953-20.422v-12.812h7.6875v33.234h-7.6875v-3.4531c-1.0547 1.4062-2.2148 2.4375-3.4844 3.0938-1.2734 0.65625-2.7422 0.98438-4.4062 0.98438-2.9492 0-5.3711-1.1719-7.2656-3.5156-1.8867-2.3438-2.8281-5.3594-2.8281-9.0469s0.94141-6.7031 2.8281-9.0469c1.8945-2.3438 4.3164-3.5156 7.2656-3.5156 1.6562 0 3.1172 0.33594 4.3906 1 1.2812 0.65625 2.4453 1.6836 3.5 3.0781zm-5.0469 15.484c1.6445 0 2.8945-0.59766 3.75-1.7969 0.86328-1.1953 1.2969-2.9297 1.2969-5.2031 0-2.2812-0.43359-4.0195-1.2969-5.2188-0.85547-1.1953-2.1055-1.7969-3.75-1.7969-1.625 0-2.8711 0.60156-3.7344 1.7969-0.85547 1.1992-1.2812 2.9375-1.2812 5.2188 0 2.2734 0.42578 4.0078 1.2812 5.2031 0.86328 1.1992 2.1094 1.7969 3.7344 1.7969z"/>
  </symbol>
  <symbol id="h" overflow="visible">
   <path d="m16.406-4.9375c1.6328 0 2.8828-0.59766 3.75-1.7969 0.86328-1.1953 1.2969-2.9297 1.2969-5.2031 0-2.2812-0.43359-4.0195-1.2969-5.2188-0.86719-1.1953-2.1172-1.7969-3.75-1.7969-1.6367 0-2.8906 0.60547-3.7656 1.8125-0.875 1.1992-1.3125 2.9336-1.3125 5.2031 0 2.2617 0.4375 3.9961 1.3125 5.2031 0.875 1.1992 2.1289 1.7969 3.7656 1.7969zm-5.0781-15.484c1.0508-1.3945 2.2188-2.4219 3.5-3.0781 1.2812-0.66406 2.7539-1 4.4219-1 2.9453 0 5.3672 1.1719 7.2656 3.5156 1.8945 2.3438 2.8438 5.3594 2.8438 9.0469s-0.94922 6.7031-2.8438 9.0469c-1.8984 2.3438-4.3203 3.5156-7.2656 3.5156-1.668 0-3.1406-0.33594-4.4219-1s-2.4492-1.6914-3.5-3.0781v3.4531h-7.6562v-33.234h7.6562z"/>
  </symbol>
  <symbol id="g" overflow="visible">
   <path d="m0.53125-23.922h7.6562l6.4219 16.234 5.4688-16.234h7.6562l-10.062 26.188c-1.0117 2.6641-2.1953 4.5234-3.5469 5.5781-1.3438 1.0625-3.1211 1.5938-5.3281 1.5938h-4.4219v-5.0156h2.3906c1.3008 0 2.2422-0.21094 2.8281-0.625 0.59375-0.40625 1.0547-1.1484 1.3906-2.2188l0.20312-0.65625z"/>
  </symbol>
  <symbol id="f" overflow="visible">
   <path d="m3.6719-33.234h7.6562v33.234h-7.6562z"/>
  </symbol>
  <symbol id="e" overflow="visible">
   <path d="m22.359-23.172v5.7969c-1.6367-0.67578-3.2148-1.1875-4.7344-1.5312-1.5234-0.34375-2.9609-0.51562-4.3125-0.51562-1.4609 0-2.543 0.18359-3.25 0.54688-0.69922 0.36719-1.0469 0.92188-1.0469 1.6719 0 0.61719 0.26562 1.0898 0.79688 1.4219 0.53125 0.32422 1.4883 0.5625 2.875 0.71875l1.3438 0.1875c3.9141 0.5 6.5508 1.3242 7.9062 2.4688 1.3516 1.1367 2.0312 2.9219 2.0312 5.3594 0 2.5547-0.94531 4.4688-2.8281 5.75-1.875 1.2812-4.6797 1.9219-8.4062 1.9219-1.5859 0-3.2188-0.125-4.9062-0.375s-3.4219-0.625-5.2031-1.125v-5.8125c1.5195 0.74219 3.082 1.2969 4.6875 1.6719 1.6016 0.36719 3.2344 0.54688 4.8906 0.54688 1.4883 0 2.6094-0.20312 3.3594-0.60938 0.75781-0.41406 1.1406-1.0312 1.1406-1.8438 0-0.6875-0.26172-1.1953-0.78125-1.5312-0.52344-0.33203-1.5586-0.59375-3.1094-0.78125l-1.3438-0.17188c-3.4062-0.42578-5.793-1.2109-7.1562-2.3594-1.3672-1.1562-2.0469-2.9102-2.0469-5.2656 0-2.5312 0.86719-4.4062 2.6094-5.625 1.7383-1.2266 4.3984-1.8438 7.9844-1.8438 1.4062 0 2.8828 0.10938 4.4375 0.32812 1.5508 0.21094 3.2383 0.54297 5.0625 1z"/>
  </symbol>
  <symbol id="k" overflow="visible">
   <path d="m11.328-3.4531v12.547h-7.6562v-33.016h7.6562v3.5c1.0508-1.3945 2.2188-2.4219 3.5-3.0781 1.2812-0.66406 2.7539-1 4.4219-1 2.9453 0 5.3672 1.1719 7.2656 3.5156 1.8945 2.3438 2.8438 5.3594 2.8438 9.0469s-0.94922 6.7031-2.8438 9.0469c-1.8984 2.3438-4.3203 3.5156-7.2656 3.5156-1.668 0-3.1406-0.33594-4.4219-1s-2.4492-1.6914-3.5-3.0781zm5.0781-15.5c-1.6367 0-2.8906 0.60547-3.7656 1.8125-0.875 1.1992-1.3125 2.9336-1.3125 5.2031 0 2.2617 0.4375 3.9961 1.3125 5.2031 0.875 1.1992 2.1289 1.7969 3.7656 1.7969 1.6328 0 2.8828-0.59766 3.75-1.7969 0.86328-1.1953 1.2969-2.9297 1.2969-5.2031 0-2.2812-0.43359-4.0195-1.2969-5.2188-0.86719-1.1953-2.1172-1.7969-3.75-1.7969z"/>
  </symbol>
  <symbol id="j" overflow="visible">
   <path d="m3.6719-33.234h7.6562v18.094l8.7969-8.7812h8.8906l-11.688 10.969 12.594 12.953h-9.2656l-9.3281-9.9688v9.9688h-7.6562z"/>
  </symbol>
 </defs> -->
 <g>
  <path d="m212.32 323.84c-22.34-0.21875-44.078-7.2617-62.301-20.184-45.238-30.953-71.848-90.836-66.234-149.02l11.359-146.57c0.35156-4.5586 4.1523-8.0742 8.7227-8.0742h218.4c4.5898 0 8.3984 3.5469 8.7266 8.1211 1.1289 15.617 2.6992 35.426 4.3594 56.328 2.7852 34.961 5.9297 74.59 7.4688 101.3h-0.003906c0.14062 2.3203-0.64844 4.5977-2.1914 6.3359-1.543 1.7383-3.7148 2.7891-6.0352 2.9219-2.3203 0.13281-4.5977-0.66016-6.332-2.207-1.7305-1.5469-2.7773-3.7227-2.9062-6.043-1.5312-26.52-4.6758-66.043-7.4414-100.92-1.3945-17.477-2.7188-34.191-3.7773-48.336h-202.16l-10.75 138.66c-5.0312 52.191 18.551 105.59 58.68 133.05 13.633 9.8398 29.746 15.664 46.52 16.816 16.773 1.1523 33.535-2.4141 48.387-10.297 4.3125-2.1602 9.5586-0.42578 11.73 3.8789 2.1719 4.3086 0.44922 9.5586-3.8516 11.742-15.57 8.0703-32.828 12.352-50.363 12.492z"/>
  <path d="m211.93 271.25c-97.453 0-120-55.277-128.75-103.44-0.42188-2.2852 0.082031-4.6445 1.4023-6.5547 1.3203-1.9141 3.3477-3.2188 5.6367-3.6367 2.2852-0.41406 4.6406 0.097656 6.5508 1.4219s3.2109 3.3555 3.6211 5.6445c8.4141 46.258 27.746 89.062 111.54 89.062 4.832 0 8.75 3.918 8.75 8.75s-3.918 8.75-8.75 8.75z"/>
  <path d="m213.93 271.25c-4.832 0-8.75-3.918-8.75-8.75s3.918-8.75 8.75-8.75c15.359 0.23438 30.68-1.6406 45.527-5.5703 4.6484-1.3242 9.4883 1.375 10.809 6.0234 1.3242 4.6484-1.375 9.4883-6.0234 10.809-16.406 4.3789-33.336 6.4766-50.312 6.2383z"/>
  <path d="m325.62 61.25h-225.18c-4.832 0-8.75-3.918-8.75-8.75s3.918-8.75 8.75-8.75h225.18c4.832 0 8.75 3.918 8.75 8.75s-3.918 8.75-8.75 8.75z"/>
  <path d="m372.05 131.25h-40.949c-4.832 0-8.75-3.918-8.75-8.75s3.918-8.75 8.75-8.75h40.949c14.426 0 26.164-14.168 26.164-31.586v-6.8281c0-17.418-11.738-31.586-26.164-31.586h-47.773c-4.8359 0-8.75-3.918-8.75-8.75s3.9141-8.75 8.75-8.75h47.773c24.078 0 43.664 22.02 43.664 49.086v6.8281c0 27.066-19.586 49.086-43.664 49.086z"/>
  <path d="m152.75 206.39c-2.7422 0.003906-5.3281-1.2773-6.9844-3.4648-19.73-26.051-19.312-67.582-18.945-104.23l0.097657-12.035c0.015625-4.8203 3.9297-8.7188 8.75-8.7227h0.027343-0.003906c2.3242 0.007813 4.5469 0.9375 6.1836 2.582 1.6367 1.6484 2.5508 3.8789 2.543 6.1992l-0.09375 12.152c-0.33984 33.844-0.72656 72.199 15.391 93.48 2 2.6445 2.3359 6.1992 0.85938 9.1719-1.4766 2.9727-4.5039 4.8555-7.8242 4.8633z"/>
  <path d="m399.56 419.67c-12.848 0.011719-25.656-1.4336-38.176-4.3086-5.4688-1.2656-10.887-2.8047-16.117-4.5703-4.5781-1.5547-7.0312-6.5234-5.4766-11.102 1.5508-4.5781 6.5234-7.0273 11.098-5.4766 4.7422 1.6094 9.5586 2.9727 14.434 4.0938 17.145 3.9219 34.836 4.8828 52.305 2.8438 69.512-9.7148 119.18-61.012 112.86-116.75l-12.262-109.4h-238.36l-12.34 109.39c-2.793 28.75 7.918 57.168 28.992 76.918 3.3867 3.4219 3.3711 8.9375-0.035156 12.34-3.4023 3.4023-8.9141 3.418-12.336 0.035156-24.891-23.492-37.457-57.215-34.008-91.266l13.211-117.16c0.50391-4.4219 4.2461-7.7656 8.6953-7.7656h254.01c4.457 0 8.1992 3.3477 8.6992 7.7773l13.125 117.16c7.3984 65.227-48.844 125.01-128.05 136.07v-0.003906c-6.7266 0.76562-13.488 1.1523-20.262 1.1562z"/>
  <path d="m393.3 358.82c-42.605 0-76.059-11.707-99.504-34.836-33.094-32.66-37.555-80.012-37.266-105.33 0.054688-4.793 3.957-8.6523 8.75-8.6523h0.10156c4.832 0.058594 8.7031 4.0195 8.6484 8.8477-0.25781 22.547 3.5703 64.562 32.059 92.676 21.004 20.73 52.145 30.887 92.688 29.727 4.8125-0.058594 8.7891 3.7305 8.9648 8.5352 0.11719 4.832-3.7031 8.8477-8.5352 8.9648-1.9844 0.042969-3.957 0.066406-5.9062 0.066406z"/>
  <path d="m404.68 358.82c-1.9492 0-3.9141-0.023437-5.8945-0.066406h-0.003906c-4.832-0.11719-8.6523-4.1328-8.5352-8.9648 0.28516-4.7539 4.1992-8.4805 8.9648-8.5352 40.074 1.1367 70.941-8.8164 91.586-29.191 26.645-26.285 31.863-65.199 31.547-93.211-0.054688-4.832 3.8203-8.793 8.6562-8.8477h0.09375c4.793 0 8.6953 3.8594 8.75 8.6523 0.35156 31.406-5.7422 75.27-36.762 105.87-23.09 22.773-56.176 34.297-98.402 34.297z"/>
  <path d="m531.94 227.5h-265.82c-4.832 0-8.75-3.918-8.75-8.75s3.918-8.75 8.75-8.75h265.82c4.832 0 8.75 3.918 8.75 8.75s-3.918 8.75-8.75 8.75z"/>
  <path d="m579.08 288.75h-40.258c-4.832 0-8.75-3.918-8.75-8.75s3.918-8.75 8.75-8.75h40.254c11.047 0 20.387-14.465 20.387-31.586v-6.8281c0.003906-17.121-9.3359-31.586-20.383-31.586h-50.059c-4.832 0-8.75-3.918-8.75-8.75s3.918-8.75 8.75-8.75h50.055c21.242 0 37.887 21.562 37.887 49.086v6.8281c0.003906 27.523-16.641 49.086-37.883 49.086z"/>
  <path d="m345.71 306.25c-1.832 0-3.6172-0.57812-5.1016-1.6484-8.0352-5.7578-14.805-13.098-19.895-21.574-5.3672-8.957-8.7578-18.957-9.9453-29.332-0.52344-4.7969 2.9297-9.1094 7.7227-9.6484 4.793-0.53906 9.1211 2.8984 9.6758 7.6914 0.89844 7.875 3.4688 15.469 7.5469 22.273 3.8633 6.4375 9.0078 12.012 15.113 16.387 3.0859 2.2188 4.3828 6.1758 3.2148 9.7891-1.168 3.6172-4.5352 6.0664-8.332 6.0625z"/>
  <path d="m256.63 560h-14.32c-0.30078 0-0.59766-0.015625-0.89844-0.042969l-7.4492-0.76953c-60.602-8.5195-103.39-54.457-97.738-104.62l9.8359-88.039v0.003906c0.49609-4.4297 4.2422-7.7773 8.6992-7.7773h189.41c4.457 0 8.2031 3.3477 8.6992 7.7773l9.8359 88.047c5.6562 50.16-37.129 96.098-97.41 104.57l-7.7656 0.8125c-0.30469 0.023437-0.60156 0.039062-0.90234 0.039062zm-13.867-17.5 20.414-0.72656c50.508-7.1016 86.73-44.562 82.133-85.246l-8.9648-80.277h-173.76l-8.9648 80.27c-4.5898 40.684 31.633 78.152 82.457 85.297z"/>
  <path d="m249.47 516.25c-74.008 0-108.48-33.367-108.48-105 0-4.832 3.918-8.75 8.75-8.75 4.832 0 8.75 3.918 8.75 8.75 0 62.148 26.359 87.5 90.977 87.5 4.832 0 8.75 3.918 8.75 8.75s-3.918 8.75-8.75 8.75z"/>
  <path d="m249.47 516.25c-4.832 0-8.75-3.918-8.75-8.75s3.918-8.75 8.75-8.75c64.523 0 90.84-25.352 90.84-87.5 0-4.832 3.918-8.75 8.75-8.75 4.832 0 8.75 3.918 8.75 8.75 0 71.633-34.426 105-108.34 105z"/>
  <path d="m349.06 420h-199.32c-4.832 0-8.75-3.918-8.75-8.75s3.918-8.75 8.75-8.75h199.32-0.003906c4.832 0 8.75 3.918 8.75 8.75s-3.918 8.75-8.75 8.75z"/>
  <path d="m144.99 463.75h-23.531c-16.535 0-29.488-18.031-29.488-41.043v-5.418c0-23.008 12.953-41.039 29.488-41.039h31.41c4.832 0 8.75 3.918 8.75 8.75s-3.918 8.75-8.75 8.75h-31.41c-5.6562 0-11.988 10.066-11.988 23.543v5.418c0 13.477 6.332 23.543 11.988 23.543l23.531-0.003906c4.8359 0 8.75 3.918 8.75 8.75s-3.9141 8.75-8.75 8.75z"/>
  <path d="m223.21 475.86c-1.2773-0.003906-2.543-0.28125-3.6992-0.82031-7.9609-3.7305-14.988-9.1875-20.57-15.98-4.5742-5.5898-8.0625-11.98-10.297-18.852-1.4844-4.5938 1.0273-9.5234 5.6211-11.02 4.5898-1.4922 9.5234 1.0156 11.027 5.6055 1.5547 4.8086 3.9961 9.2812 7.2031 13.191 3.918 4.7578 8.8477 8.582 14.43 11.195 3.7188 1.7383 5.7305 5.8242 4.8398 9.832-0.89453 4.0039-4.4492 6.8516-8.5547 6.8477z"/>
  <path d="m213.93 271.25h-2c-4.832 0-8.75-3.918-8.75-8.75s3.918-8.75 8.75-8.75h2c4.832 0 8.75 3.918 8.75 8.75s-3.918 8.75-8.75 8.75z"/>
  <use x="70" y="691.25" xlink:href="#l"/>
  <use x="102.109375" y="691.25" xlink:href="#d"/>
  <use x="123.683594" y="691.25" xlink:href="#c"/>
  <use x="153.355469" y="691.25" xlink:href="#a"/>
  <use x="182.878906" y="691.25" xlink:href="#b"/>
  <use x="203.792969" y="691.25" xlink:href="#c"/>
  <use x="233.464844" y="691.25" xlink:href="#i"/>
  <use x="280.011719" y="691.25" xlink:href="#h"/>
  <use x="311.328125" y="691.25" xlink:href="#g"/>
  <use x="355.078125" y="691.25" xlink:href="#f"/>
  <use x="370.078125" y="691.25" xlink:href="#a"/>
  <use x="399.597656" y="691.25" xlink:href="#e"/>
  <use x="425.640625" y="691.25" xlink:href="#b"/>
  <use x="446.554688" y="691.25" xlink:href="#e"/>
  <use x="472.59375" y="691.25" xlink:href="#k"/>
  <use x="503.910156" y="691.25" xlink:href="#a"/>
  <use x="533.433594" y="691.25" xlink:href="#d"/>
  <use x="555.007812" y="691.25" xlink:href="#j"/>
 </g>
</svg>
